<svg width="512" height="512" viewBox="0 0 512 512" xmlns="http://www.w3.org/2000/svg">
  <!-- THE DOGHOUSE / Around The House — official brand icon mark.
       Glyph artwork is verbatim from the brand source file
       (Desktop/ATHLogo/Icon/ATH Logo_Icon.svg) — only the background and
       scale changed, to fill the icon tile edge-to-edge. The source file
       has the mark inset with heavy padding on all sides, correct for a
       letterhead/print context but wrong for a home-screen icon, where a
       transparent margin shows the OS wallpaper bleeding through it. -->
  <rect width="512" height="512" fill="#F9A11B"/>
  <g fill="#ffffff" transform="translate(76.8,57.05) scale(2.95) translate(-85.73,-67.79)">
    <path d="M151.5,129.32v65.39c0,1.07-.74,1.72-1.88,1.72h-8.84c-1.22,0-1.79-.65-1.79-1.72v-65.44c0-.69.2-1.36.58-1.93l28.26-42.35c.77-1.15,2.6-1.21,3.37-.07l28.69,42.28c.38.59,0,1.08-.9,1.08l-9.66.03c-1.35,0-1.88-.29-2.33-.98l-17.49-27.06-17.45,27.15c-.36.57-.56,1.23-.56,1.9Z"/>
    <path d="M198.24,196.42h-8.91c-1.14,0-1.8-.65-1.8-1.72v-25.6h-28.41c-.84,0-1.52-.68-1.52-1.52v-7.66c0-.84.68-1.52,1.52-1.52h28.41l-.02-22.12c0-1.06.65-1.72,1.8-1.72h8.91c1.14,0,1.8.66,1.8,1.72l.02,58.42c0,1.07-.65,1.72-1.8,1.72Z"/>
  </g>
</svg>
